<?xml version="1.0" standalone="no"?>
<!DOCTYPE svg PUBLIC "-//W3C//DTD SVG 20010904//EN"
 "http://www.w3.org/TR/2001/REC-SVG-20010904/DTD/svg10.dtd">
<svg version="1.0" xmlns="http://www.w3.org/2000/svg"
 width="194.000000pt" height="194.000000pt" viewBox="0 0 194.000000 194.000000"
 preserveAspectRatio="xMidYMid meet">
<metadata>
Created by potrace 1.11, written by Peter Selinger 2001-2013
</metadata>
<g transform="translate(0.000000,194.000000) scale(0.100000,-0.100000)"
fill="#000000" stroke="none">
<path d="M780 1904 c-365 -78 -646 -353 -737 -720 -26 -107 -24 -324 5 -438
91 -364 371 -632 742 -708 122 -26 305 -21 425 11 380 100 658 421 706 813 22
177 -10 357 -91 524 -131 269 -373 459 -662 518 -95 20 -297 20 -388 0z m375
-239 c33 -8 98 -34 145 -57 68 -33 102 -59 176 -132 77 -77 98 -105 138 -186
61 -125 79 -213 73 -355 -9 -189 -74 -334 -211 -470 -199 -197 -469 -259 -738
-169 -221 73 -412 287 -463 519 -26 114 -17 273 20 384 82 242 288 423 544
477 80 16 230 11 316 -11z"/>
<path d="M900 1409 c-36 -15 -59 -38 -84 -84 -20 -38 -21 -56 -24 -318 -2
-177 1 -297 8 -330 20 -96 84 -150 175 -150 77 0 121 28 161 103 17 32 19 61
19 335 0 267 -2 305 -18 348 -27 69 -73 100 -151 104 -33 2 -72 -2 -86 -8z
m98 -151 c9 -9 12 -86 12 -284 0 -234 -2 -275 -16 -288 -12 -12 -20 -13 -35
-6 -18 10 -19 24 -19 285 0 150 3 280 6 289 7 19 35 21 52 4z"/>
<path d="M1297 1398 c-26 -15 -46 -39 -63 -74 l-25 -51 3 -309 c3 -280 5 -313
22 -347 28 -56 82 -89 148 -89 75 -1 122 24 156 81 l27 46 3 297 c2 191 -1
311 -8 337 -12 47 -50 96 -91 116 -43 22 -127 19 -172 -7z m118 -423 c0 -278
-1 -290 -19 -293 -42 -8 -46 18 -46 284 0 271 5 307 43 302 l22 -3 0 -290z"/>
<path d="M505 1380 c-14 -28 -45 -48 -98 -64 -15 -5 -18 -15 -15 -63 l3 -58
53 -3 52 -3 0 -325 0 -324 70 0 70 0 0 435 0 435 -60 0 c-56 0 -60 -2 -75 -30z"/>
</g>
</svg>
